<?xml version="1.0" standalone="no"?>
<!DOCTYPE svg PUBLIC "-//W3C//DTD SVG 20010904//EN"
 "http://www.w3.org/TR/2001/REC-SVG-20010904/DTD/svg10.dtd">
<svg version="1.0" xmlns="http://www.w3.org/2000/svg"
 width="500.000000pt" height="500.000000pt" viewBox="0 0 500.000000 500.000000"
 preserveAspectRatio="xMidYMid meet">

<g transform="translate(0.000000,500.000000) scale(0.100000,-0.100000)"
fill="#000000" stroke="none">
<path d="M0 2500 l0 -2500 2500 0 2500 0 0 2500 0 2500 -2500 0 -2500 0 0
-2500z m2545 1030 c39 -6 105 -22 148 -37 l77 -27 -2 -220 -3 -221 -85 -29
c-153 -52 -319 -47 -483 14 l-57 22 2 216 3 216 58 23 c58 23 185 51 242 52
17 0 62 -4 100 -9z m-448 -467 c-2 -2 -12 -1 -21 3 -14 5 -16 28 -16 180 0
154 2 174 18 183 16 9 17 -3 20 -176 1 -102 1 -188 -1 -190z m751 184 c-2
-133 -6 -181 -15 -185 -10 -3 -13 39 -13 187 0 166 2 190 15 185 13 -5 15 -33
13 -187z m-828 -3 l0 -145 -32 22 c-61 42 -138 110 -138 123 0 19 140 144 163
145 4 1 7 -65 7 -145z m983 72 c37 -31 67 -63 67 -70 0 -13 -50 -59 -132 -120
l-38 -28 0 146 c0 169 -8 163 103 72z m-2163 -6 c9 -21 19 -30 35 -30 13 0 31
-3 40 -6 14 -6 12 -11 -11 -35 -23 -24 -26 -34 -21 -68 3 -23 3 -41 1 -41 -2
0 -18 9 -35 19 -32 20 -33 20 -71 0 l-38 -20 6 41 c6 36 3 45 -20 69 -23 24
-25 29 -11 35 9 3 27 6 39 6 16 0 27 10 39 36 19 39 29 38 47 -6z m263 5 c13
-27 23 -35 44 -35 49 0 56 -13 24 -44 -25 -24 -27 -31 -21 -66 8 -46 6 -47
-35 -21 -29 18 -31 18 -69 -1 l-39 -20 7 43 c6 37 4 46 -20 70 l-27 28 29 6
c51 11 55 14 65 45 14 39 22 38 42 -5z m270 0 c12 -25 23 -35 39 -35 43 0 50
-14 23 -40 -22 -21 -25 -29 -19 -67 l6 -44 -36 17 c-34 17 -38 17 -72 0 l-37
-17 6 44 c5 38 3 47 -18 67 -28 26 -19 40 23 40 16 0 27 10 39 35 9 19 20 35
23 35 3 0 14 -16 23 -35z m266 0 c14 -24 28 -35 43 -35 43 0 50 -14 22 -41
-22 -21 -25 -29 -19 -67 l6 -43 -39 20 c-38 19 -39 19 -68 0 -40 -26 -42 -25
-34 21 6 35 4 42 -21 66 -32 31 -25 44 24 44 21 0 31 8 44 35 9 19 18 35 19
35 1 0 11 -16 23 -35z m1691 -5 c9 -21 19 -30 35 -30 13 0 31 -3 40 -6 14 -6
12 -11 -11 -35 -23 -24 -26 -33 -20 -69 l6 -41 -37 20 c-37 19 -38 19 -76 0
l-37 -20 6 41 c6 36 3 45 -20 69 -23 24 -25 29 -11 35 9 3 27 6 39 6 16 0 27
10 39 36 19 39 29 38 47 -6z m308 -30 c48 0 55 -13 23 -44 -25 -24 -27 -31
-21 -66 8 -46 6 -47 -34 -21 -29 19 -30 19 -68 0 l-39 -20 6 43 c6 38 3 46
-19 67 -28 27 -21 41 22 41 15 0 29 12 44 36 l21 36 19 -36 c14 -28 25 -36 46
-36z m224 36 c14 -27 24 -34 58 -40 l41 -6 -30 -26 c-28 -23 -30 -29 -24 -70
l6 -45 -37 17 c-34 17 -38 17 -72 0 l-36 -17 6 44 c6 38 3 46 -19 67 -27 26
-20 40 23 40 16 0 27 10 39 35 9 19 20 35 23 35 3 0 14 -15 22 -34z m271 -1
c12 -25 23 -35 39 -35 43 0 50 -14 23 -40 -23 -21 -25 -29 -19 -68 l7 -44 -39
20 c-38 19 -40 19 -69 1 -41 -26 -43 -25 -35 21 6 35 4 42 -21 66 -32 31 -25
44 24 44 21 0 31 8 44 35 9 19 20 35 23 35 3 0 14 -16 23 -35z m-3368 -827
c27 -111 115 -533 115 -549 0 -18 -6 -20 -47 -17 l-48 3 -10 55 -10 55 -66 3
-66 3 -12 -61 -12 -60 -51 0 c-47 0 -50 1 -45 23 3 12 31 145 63 295 l59 272
62 0 c57 0 63 -2 68 -22z m2136 -7 c26 -27 29 -36 29 -95 l0 -66 -50 0 -50 0
0 40 c0 45 -25 66 -66 56 -22 -6 -24 -11 -24 -70 l0 -64 95 -32 95 -32 0 -118
c0 -111 -2 -121 -24 -147 -22 -25 -31 -28 -105 -31 -133 -6 -163 18 -165 130
l-1 63 50 0 50 0 5 -45 5 -45 40 0 40 0 3 60 3 61 -88 28 c-48 15 -94 35 -100
44 -16 19 -17 171 -3 224 16 57 40 68 143 68 85 0 90 -1 118 -29z m-1851 -251
l0 -210 80 0 80 0 0 -50 0 -51 -127 3 -128 3 -3 245 c-1 134 0 250 3 257 2 8
22 13 50 13 l45 0 0 -210z m506 177 c22 -26 24 -36 24 -147 0 -111 -2 -121
-24 -147 -21 -25 -31 -28 -100 -31 l-76 -4 0 -79 0 -79 -45 0 -45 0 0 261 0
261 121 -4 c118 -3 121 -4 145 -31z m202 -74 l3 -103 44 0 44 0 3 103 3 102
48 3 47 3 0 -261 0 -261 -47 3 -48 3 -3 103 -3 102 -44 0 -44 0 -3 -102 -3
-103 -47 -3 -48 -3 0 261 0 261 48 -3 47 -3 3 -102z m564 -133 c32 -129 60
-245 63 -258 5 -22 3 -23 -42 -20 -47 3 -47 3 -61 51 l-13 47 -69 0 -69 0 -13
-47 -14 -48 -48 -3 c-42 -3 -47 -1 -42 15 3 10 31 122 61 248 31 127 58 236
60 243 3 9 23 12 67 10 l62 -3 58 -235z m963 190 l0 -45 -47 -3 -48 -3 0 -210
0 -209 -50 0 -50 0 0 210 0 210 -50 0 -50 0 0 50 0 51 148 -3 147 -3 0 -45z
m357 -190 c32 -129 60 -245 63 -258 5 -22 3 -23 -42 -20 -47 3 -47 3 -61 51
l-13 47 -69 0 -69 0 -13 -47 -14 -48 -48 -3 c-42 -3 -47 -1 -42 15 3 10 31
122 61 248 31 127 58 236 60 243 3 9 23 12 67 10 l62 -3 58 -235z m406 193
l-3 -48 -47 -3 -48 -3 0 -210 0 -209 -50 0 -50 0 0 209 0 210 -47 3 c-46 3
-48 4 -51 36 -6 62 -7 62 153 62 l146 0 -3 -47z m352 -3 l0 -50 -95 0 -95 0 0
-55 0 -54 73 -3 72 -3 3 -47 3 -48 -75 0 -76 0 0 -55 0 -55 95 0 95 0 0 -50 0
-50 -145 0 -145 0 0 260 0 260 145 0 145 0 0 -50z m-2830 -595 c0 -10 -11 -15
-35 -15 -32 0 -35 -2 -35 -30 0 -25 4 -30 25 -30 18 0 25 -5 25 -20 0 -15 -7
-20 -25 -20 -23 0 -25 -4 -25 -45 0 -38 -3 -45 -20 -45 -19 0 -20 7 -20 110
l0 110 55 0 c42 0 55 -3 55 -15z m1408 -22 c4 -38 -22 -47 -31 -12 -3 12 -12
19 -19 17 -9 -3 -14 -28 -16 -76 -2 -60 0 -72 13 -72 9 0 18 7 21 15 11 27 34
17 34 -14 0 -31 -14 -41 -59 -41 -43 0 -51 16 -51 110 0 100 8 112 65 108 37
-3 40 -5 43 -35z m-1248 -12 c13 -25 13 -112 0 -145 -8 -22 -16 -26 -49 -26
-50 0 -61 17 -61 95 0 77 11 95 60 95 29 0 42 -5 50 -19z m168 -70 c3 -92 -1
-101 -53 -101 -45 0 -55 16 -55 91 0 95 3 101 59 97 l46 -3 3 -84z m162 74 c0
-8 -7 -15 -15 -15 -12 0 -15 -16 -15 -80 0 -73 -2 -80 -20 -80 -18 0 -20 7
-20 80 0 73 -2 80 -20 80 -11 0 -20 7 -20 15 0 12 13 15 55 15 42 0 55 -3 55
-15z m162 -10 c8 -18 8 -32 0 -49 -7 -17 -7 -27 0 -34 8 -8 8 -22 2 -44 -9
-31 -12 -33 -62 -36 l-52 -3 0 95 0 96 50 0 c44 0 52 -3 62 -25z m157 -12 c41
-159 40 -153 21 -153 -10 0 -20 9 -23 20 -3 13 -14 20 -30 20 -17 0 -28 -7
-32 -20 -6 -20 -35 -28 -35 -10 0 6 10 49 21 95 19 76 24 85 45 85 18 0 25 -8
33 -37z m121 -38 l0 -75 30 0 c23 0 30 -4 30 -20 0 -17 -7 -20 -45 -20 l-45 0
0 95 c0 78 3 95 15 95 12 0 15 -15 15 -75z m160 1 c0 -74 0 -75 27 -78 17 -2
29 -10 31 -20 3 -15 -4 -18 -47 -18 l-51 0 0 95 c0 88 1 95 20 95 18 0 20 -7
20 -74z m410 -1 l0 -75 30 0 c23 0 30 -4 30 -20 0 -17 -7 -20 -45 -20 l-45 0
0 95 c0 78 3 95 15 95 12 0 15 -15 15 -75z m160 -1 c0 -66 2 -75 18 -72 14 3
18 16 20 76 2 55 6 72 17 72 12 0 15 -18 15 -89 0 -96 -3 -101 -59 -101 -43 0
-51 16 -51 107 0 76 2 83 20 83 18 0 20 -7 20 -76z m234 59 c9 -34 5 -147 -6
-160 -6 -7 -30 -13 -54 -13 l-44 0 0 95 0 95 49 0 c39 0 51 -4 55 -17z"/>
<path d="M2287 3314 c-4 -4 -7 -15 -7 -25 0 -13 -9 -19 -32 -21 -47 -4 -51
-35 -6 -40 25 -2 34 -8 36 -25 5 -34 42 -31 42 3 0 23 3 25 33 22 25 -2 33 -8
35 -26 5 -30 36 -25 40 6 5 32 55 28 60 -5 2 -15 10 -23 22 -23 12 0 20 8 22
23 2 17 10 22 33 22 23 0 31 -5 33 -22 5 -33 42 -31 42 2 0 22 4 25 36 25 28
0 35 3 32 18 -2 11 -14 18 -35 20 -24 2 -33 9 -35 25 -4 29 -32 28 -36 0 -3
-19 -10 -23 -37 -23 -27 0 -34 4 -37 23 -2 12 -10 22 -18 22 -8 0 -16 -10 -18
-22 -3 -18 -10 -23 -32 -23 -22 0 -29 5 -32 23 -2 12 -10 22 -18 22 -8 0 -16
-10 -18 -22 -3 -19 -10 -23 -37 -23 -27 0 -34 4 -37 22 -3 22 -19 33 -31 22z"/>
<path d="M673 2252 c-12 -64 -19 -120 -16 -124 2 -5 22 -8 44 -8 30 0 39 4 39
18 0 21 -38 224 -43 228 -2 2 -13 -49 -24 -114z"/>
<path d="M1380 2260 l0 -81 53 3 52 3 0 75 0 75 -52 3 -53 3 0 -81z"/>
<path d="M2174 2200 l-21 -90 47 0 47 0 -21 90 c-11 50 -23 90 -26 90 -3 0
-15 -40 -26 -90z"/>
<path d="M3494 2200 l-21 -90 47 0 47 0 -21 90 c-11 50 -23 90 -26 90 -3 0
-15 -40 -26 -90z"/>
<path d="M1660 1690 c0 -53 2 -60 20 -60 18 0 20 7 20 60 0 53 -2 60 -20 60
-18 0 -20 -7 -20 -60z"/>
<path d="M1830 1691 c0 -55 2 -61 20 -61 19 0 21 5 18 57 -2 46 -7 59 -20 61
-16 3 -18 -5 -18 -57z"/>
<path d="M2150 1730 c0 -13 7 -20 20 -20 13 0 20 7 20 20 0 13 -7 20 -20 20
-13 0 -20 -7 -20 -20z"/>
<path d="M2150 1650 c0 -13 7 -20 20 -20 13 0 20 7 20 20 0 13 -7 20 -20 20
-13 0 -20 -7 -20 -20z"/>
<path d="M2341 1720 c-1 -8 -4 -25 -7 -37 -5 -17 -2 -23 10 -23 17 0 20 23 6
55 -6 13 -9 15 -9 5z"/>
<path d="M3390 1730 c0 -13 7 -20 20 -20 13 0 20 7 20 20 0 13 -7 20 -20 20
-13 0 -20 -7 -20 -20z"/>
<path d="M3390 1650 c0 -13 7 -20 20 -20 13 0 20 7 20 20 0 13 -7 20 -20 20
-13 0 -20 -7 -20 -20z"/>
</g>
</svg>
